<?xml version="1.0" encoding="utf-8"?>
<!-- Svg Vector Icons : http://www.sfont.cn -->
<!DOCTYPE svg PUBLIC "-//W3C//DTD SVG 1.1//EN" "http://www.w3.org/Graphics/SVG/1.1/DTD/svg11.dtd">
<svg version="1.1" xmlns="http://www.w3.org/2000/svg" xmlns:xlink="http://www.w3.org/1999/xlink" x="0px" y="0px" viewBox="0 0 1000 1000" enable-background="new 0 0 1000 1000" xml:space="preserve">
<metadata> Svg Vector Icons : http://www.sfont.cn </metadata>
<g><g transform="matrix(1 0 0 -1 0 1638)"><path d="M553,1137.6l426,426c7.4,7.4,11,16.2,11,26.5c0,10.3-3.7,19.1-11,26.5s-16.3,11-26.9,11s-19.5-3.7-26.9-11L500,1191.3L74.7,1616.6c-7.4,7.4-16.3,11-26.9,11c-10.5,0-19.5-3.7-26.9-11s-11-16.2-11-26.5c0-10.3,3.7-19.1,11-26.5l426-426L21,712.4c-7.4-7.4-11-16.2-11-26.5s3.7-19.1,11-26.5c3.9-3.9,8.2-6.7,12.9-8.5c4.7-1.7,9.4-2.6,14.3-2.6c4.4,0,9,0.9,13.6,2.6c4.7,1.7,9,4.5,12.9,8.5L500,1084.7l425.3-425.3c3.9-3.9,8.2-6.7,12.9-8.5s9.2-2.6,13.6-2.6c4.9,0,9.7,0.9,14.3,2.6s9,4.5,12.9,8.5c7.4,7.4,11,16.2,11,26.5s-3.7,19.1-11,26.5L553,1137.6L553,1137.6z"/></g></g>
</svg>