<?xml version="1.0" encoding="utf-8"?>
<!-- Svg Vector Icons : http://www.sfont.cn -->
<!DOCTYPE svg PUBLIC "-//W3C//DTD SVG 1.1//EN" "http://www.w3.org/Graphics/SVG/1.1/DTD/svg11.dtd">
<svg version="1.1" xmlns="http://www.w3.org/2000/svg" xmlns:xlink="http://www.w3.org/1999/xlink" x="0px" y="0px" viewBox="0 0 1000 1000" enable-background="new 0 0 1000 1000" xml:space="preserve">
<metadata> Svg Vector Icons : http://www.sfont.cn </metadata>
<g><path d="M864.2,559.6c0,201.3-162.9,364.2-364.2,364.2S135.8,760.9,135.8,559.6c0-201.3,162.9-364.2,364.2-364.2c25.2,0,49,2.6,72.8,7.9l-94,94l46.4,46.4L692,176.9L525.2,10l-46.4,46.4l76.8,76.8c-18.5-1.3-37.1-4-55.6-4c-237.1,0-430.4,193.4-430.4,430.4C69.6,796.6,262.9,990,500,990c237.1,0,430.4-193.4,430.4-430.4H864.2z"/></g>
</svg>